<?xml version="1.0" encoding="UTF-8" standalone="no"?>
<svg
   xmlns:dc="http://purl.org/dc/elements/1.1/"
   xmlns:cc="http://creativecommons.org/ns#"
   xmlns:rdf="http://www.w3.org/1999/02/22-rdf-syntax-ns#"
   xmlns:svg="http://www.w3.org/2000/svg"
   xmlns="http://www.w3.org/2000/svg"
   xmlns:sodipodi="http://sodipodi.sourceforge.net/DTD/sodipodi-0.dtd"
   xmlns:inkscape="http://www.inkscape.org/namespaces/inkscape"
   version="1.1"
   x="0px"
   y="0px"
   viewBox="0 0 48 60"
   style="enable-background:new 0 0 48 48;"
   xml:space="preserve"
   id="svg22"
   sodipodi:docname="noun_787664_cc.svg"
   inkscape:version="0.92.1 r"><metadata
     id="metadata28"><rdf:RDF><cc:Work
         rdf:about=""><dc:format>image/svg+xml</dc:format><dc:type
           rdf:resource="http://purl.org/dc/dcmitype/StillImage" /></cc:Work></rdf:RDF></metadata><defs
     id="defs26" /><sodipodi:namedview
     pagecolor="#ffffff"
     bordercolor="#666666"
     borderopacity="1"
     objecttolerance="10"
     gridtolerance="10"
     guidetolerance="10"
     inkscape:pageopacity="0"
     inkscape:pageshadow="2"
     inkscape:window-width="818"
     inkscape:window-height="480"
     id="namedview24"
     showgrid="false"
     inkscape:zoom="3.9333333"
     inkscape:cx="24"
     inkscape:cy="30"
     inkscape:window-x="0"
     inkscape:window-y="27"
     inkscape:window-maximized="0"
     inkscape:current-layer="svg22" /><g
     id="g16"><path
       d="M17.1,21.3h4.3c0.4,0,0.8-0.4,0.8-0.8s-0.4-0.8-0.8-0.8h-4.3c-0.4,0-0.8,0.4-0.8,0.8S16.6,21.3,17.1,21.3z"
       id="path2" /><path
       d="M17.1,25.6h9.2c0.4,0,0.8-0.4,0.8-0.8c0-0.4-0.4-0.8-0.8-0.8h-9.2c-0.4,0-0.8,0.4-0.8,0.8C16.3,25.2,16.6,25.6,17.1,25.6z"
       id="path4" /><path
       d="M30.3,28.3H17.2c-0.4,0-0.8,0.4-0.8,0.8c0,0.4,0.4,0.8,0.8,0.8h13.1c0.4,0,0.8-0.4,0.8-0.8C31.1,28.6,30.7,28.3,30.3,28.3z   "
       id="path6" /><path
       d="M30.3,32.5H17.2c-0.4,0-0.8,0.4-0.8,0.8s0.4,0.8,0.8,0.8h13.1c0.4,0,0.8-0.4,0.8-0.8S30.7,32.5,30.3,32.5z"
       id="path8" /><path
       d="M30.1,37.2h-4.3c-0.4,0-0.8,0.4-0.8,0.8s0.4,0.8,0.8,0.8h4.3c0.4,0,0.8-0.4,0.8-0.8S30.6,37.2,30.1,37.2z"
       id="path10" /><path
       d="M33.9,40c0,1-0.8,1.9-1.9,1.9H16c-1,0-1.9-0.8-1.9-1.9V8c0-1,0.8-1.9,1.9-1.9h7.7V4H16c-2.2,0-4,1.8-4,4v32   c0,2.2,1.8,4,4,4h16c2.2,0,4-1.8,4-4V22.1h-2.1V40z"
       id="path12" /><path
       d="M30,19.3c3.3,0,6-2.7,6-6c0-3.3-2.7-6-6-6s-6,2.7-6,6C24,16.6,26.7,19.3,30,19.3z M29.3,9.3c0-0.3,0.2-0.5,0.5-0.5   s0.5,0.2,0.5,0.5v3.9l2.7-1.2c0.3-0.1,0.6,0,0.7,0.3c0.1,0.3,0,0.6-0.3,0.7l-3.5,1.5c-0.1,0-0.1,0-0.2,0c-0.1,0-0.2,0-0.3-0.1   c-0.1-0.1-0.2-0.3-0.2-0.4V9.3z"
       id="path14" /></g></svg>